<svg xmlns="http://www.w3.org/2000/svg" width="27" height="27" fill="none"><path fill="#fff" d="M26.97 13.496c.01-.32.094-4.907-2.62-7.892-.12-.267-.692-1.342-2.538-2.657a18.9 18.9 0 0 0-2.6-1.693l-.003-.002C19.094 1.191 16.843 0 14.111 0c-.207 0-.412.012-.615.026V.022c-2.083-.045-4.152.491-5.4 1.054-1.105.5-2.333 1.337-2.422 1.402-1.532.856-4.437 4.295-4.667 6.117-.928 1.186-1.704 6.517.002 9.763 1.196 4.512 5.699 6.77 6.057 6.944.218.139 2.672 1.656 5.686 1.656.127 0 .891.042 1.164.042 3.258 0 8.087-2.297 9.098-4.096 2.777-2.031 4.216-7.266 3.956-9.408ZM7.09 20.274c-1.29-2.088-2.026-4.817-2.183-5.444.408-.612 2.424-3.584 3.572-4.478.65.12 3.366.618 5.927 1.082.321.834 1.733 4.513 2.137 5.933-.445.528-2.195 2.566-3.918 4.162-1.83.008-4.941-1.047-5.534-1.255ZM23.32 5.661a5.165 5.165 0 0 1-.398 1.749c-.684-.35-2.405-1.098-4.762-1.225-.357-.527-1.7-2.364-3.821-3.638.29-.568.694-1.26.93-1.472a1.4 1.4 0 0 1 .377-.041c1.137 0 3.102.744 3.273.81.181.096 3.713 1.998 4.401 3.817ZM4.398 14.405c-1.54-.263-2.456-.741-2.73-.903-.573-2.078-.112-4.324-.04-4.645.565-1.01 2.174-3.587 3.235-4.076 1.1-.225 2.473.054 3.032.19-.053.727-.154 2.758.146 4.888-1.217.98-3.145 3.801-3.643 4.546ZM13.358.688c.346.026.853.102 1.2.205-.346.46-.701 1.144-.87 1.481-.706.116-3.389.629-5.494 1.994-.424-.113-1.706-.413-2.92-.31.3-.581.75-1.012.798-1.056.167-.12 3.381-2.368 7.286-2.32v.006Zm8.593 17.142a27.278 27.278 0 0 1-4.78-.66c-.425-1.486-1.832-5.15-2.154-5.983a250.46 250.46 0 0 1 3.117-4.344c2.56.14 4.357 1.074 4.705 1.269 1.483 2.384 1.808 4.82 1.853 5.227-.788 2.45-2.345 4.1-2.74 4.491ZM.745 11.933c.037.57.129 1.17.294 1.763a5.264 5.264 0 0 0-.307 1.193 14.85 14.85 0 0 1 .013-2.956Zm4.34 10.512c.678-.654 1.515-1.29 1.839-1.53.733.258 3.746 1.276 5.666 1.276.327.439 1.397 1.813 2.708 2.863-.816.799-1.995 1.176-2.204 1.238-3.657.098-7.219-1.957-8.01-3.847Zm9.658 3.842c.415-.242.847-.56 1.205-.963.583-.08 3.088-.511 5.352-2.174.149.016.395.036.67.028-1.358 1.33-4.672 2.817-7.227 3.109Zm6.94-3.77c.814-2.118.779-3.715.739-4.226.446-.437 1.978-2.07 2.828-4.55.458.076.756.193.897.258.05.18.131.596.085 1.226-.346 2.27-1.543 5.67-3.638 7.173-.21.108-.581.131-.91.12Z"/></svg>